{"title":"The.Machinist.2004.iNTERNAL.BDRip.XviD-EXViDiNT","uid":6958042,"size":1065083503,"categoryP":"video","categoryS":"movies","magnet":"?xt=urn:btih:2c435759652e9b59bd6eaf7b3af7bf2f4f69b928&amp;dn=The.Machinist.2004.iNTERNAL.BDRip.XviD-EXViDiNT&amp;tr=udp%3A%2F%2Ftracker.openbittorrent.com%3A80&amp;tr=udp%3A%2F%2Fopen.demonii.com%3A1337&amp;tr=udp%3A%2F%2Ftracker.coppersurfer.tk%3A6969&amp;tr=udp%3A%2F%2Fexodus.desync.com%3A6969","seeders":0,"leechers":1,"uploader":"TvTeam","files":8,"time":1326655420,"description":". \n &lt;a href=&quot;\nhttp://www.torrenting.com&quot; rel=&quot;nofollow&quot; target=&quot;_NEW&quot;&gt;\nhttp://www.torrenting.com&lt;/a&gt;          :     Once &amp; For all ;)\n\n\n               www . Torrenting . Com \n\n(((((((((((((= Enjoy No RAR releases =))))))))))))))))))))\n\n\n...................................NFO:....................................\n\n.                                                                                                     \n       \n     \n     \n       \n       \n     \n     \n                                         \n                                         \n                EXVID                    \n                                         \n         \n                                         \n         Filled the Archives             \n                                         \n         \n                                         \n                With:                    \n                                         \n         \n                                         \n                                    \n     E240                           \n                                    \n     SP               (C) 2009      \n                                         \n     \n     \n     \n                                                                                  \n                                                                                   \n             The.Machinist.2004.iNTERNAL.BDRip.XviD-EXViDiNT                        \n                                                                                   \n                                                                                  \n     \n                                                                                               \nEXViD aims to iNTERNAL those releases which have been lost in the archives.\nEXViD aims to PRE non-internal releases which have poor sources and are likely skipped by others. &lt;a href=&quot;\nhttp://www.imdb.com/title/tt0361862/&quot; rel=&quot;nofollow&quot; target=&quot;_NEW&quot;&gt;\nhttp://www.imdb.com/title/tt0361862/&lt;/a&gt;\nSubtitles: EN, ES, FR, PT\nDate: 2012.01\n\nDirector: Brad Anderson\n\nGenre: Drama | Mystery | Thriller\n\nPlot:\nAn industrial worker who hasn't slept in a year begins to doubt his own sanity. \n\nCast:\nChristian Bale\t \t... \tTrevor Reznik\nJennifer Jason Leigh \t... \tStevie\nAitana Snchez-Gijn \t... \tMarie\nJohn Sharian \t\t... \tIvan\nMichael Ironside \t... \tMiller\nLawrence Gilliard Jr. \t... \tJackson (as Larry Gilliard)\nReg E. Cathey \t\t... \tJones\nAnna Massey \t\t... \tMrs. Shrike\nMatthew Romero Moore \t... \tNicholas (as Matthew Romero)\nRobert Long \t\t... \tSupervisor Furman\nColin Stinton \t\t... \tInspector Rogers\nCraig Stevenson \t... \tTucker\nFerran Lahoz \t\t... \tGonzales\nJeremy Xido \t\t... \tEvangelisti\nNorman Bell \t\t... \tDMV Clerk \n\nStats:\nFormat                                   : AVI\nFormat/Info                              : Audio Video Interleave\nFile size                                : 701 MiB\nDuration                                 : 1h 41mn\nOverall bit rate mode                    : Variable\nOverall bit rate                         : 962 Kbps\n\nVideo\nID                                       : 0\nFormat                                   : MPEG-4 Visual\nFormat profile                           : Advanced Simple@L5\nFormat settings, BVOP                    : 2\nFormat settings, QPel                    : No\nFormat settings, GMC                     : No warppoints\nFormat settings, Matrix                  : Default (H.263)\nCodec ID                                 : XVID\nCodec ID/Hint                            : XviD\nDuration                                 : 1h 41mn\nBit rate                                 : 827 Kbps\nWidth                                    : 640 pixels\nHeight                                   : 272 pixels\nDisplay aspect ratio                     : 2.35:1\nFrame rate                               : 23.976 fps\nColor space                              : YUV\nChroma subsampling                       : 4:2:0\nBit depth                                : 8 bits\nScan type                                : Progressive\nCompression mode                         : Lossy\nBits/(Pixel*Frame)                       : 0.198\nStream size                              : 603 MiB (86%)\nWriting library                          : XviD 64\n\nAudio\nID                                       : 1\nFormat                                   : MPEG Audio\nFormat version                           : Version 1\nFormat profile                           : Layer 3\nMode                                     : Joint stereo\nCodec ID                                 : 55\nCodec ID/Hint                            : MP3\nDuration                                 : 1h 41mn\nBit rate mode                            : Variable\nBit rate                                 : 123 Kbps\nChannel(s)                               : 2 channels\nSampling rate                            : 48.0 KHz\nCompression mode                         : Lossy\nStream size                              : 89.4 MiB (13%)\nAlignment                                : Aligned on interleaves\nInterleave, duration                     : 24 ms (0.58 video frame)\nInterleave, preload duration             : 192 ms\n\n\nRelease notes:\nEnjoy!\n\n\nLooking for:\n75TB+ Archives\nDUTCH/FLEMiSH Archives\n                                                                                                    \nGreets: CRBS EPiSODE FiCO FLS iLS KLASSiGER LiPSYNC MADE NODLABS RUNNER SPRiNTER      \n   \n\n                                                                    ASCII DONE BY XX^NFO 2oo9","torrent":{"xt":"urn:btih:2c435759652e9b59bd6eaf7b3af7bf2f4f69b928","amp;dn":"The.Machinist.2004.iNTERNAL.BDRip.XviD-EXViDiNT","amp;tr":["udp%3A%2F%2Ftracker.openbittorrent.com%3A80","udp%3A%2F%2Fopen.demonii.com%3A1337","udp%3A%2F%2Ftracker.coppersurfer.tk%3A6969","udp%3A%2F%2Fexodus.desync.com%3A6969"],"infoHash":"2c435759652e9b59bd6eaf7b3af7bf2f4f69b928","infoHashBuffer":{"type":"Buffer","data":[44,67,87,89,101,46,155,89,189,110,175,123,58,247,191,47,79,105,185,40]},"announce":[],"urlList":[]}}